OpenSim_Sub09_EMGStiffKnee_GRF.mot
version=1
nRows=53
nColumns=19
inDegrees=no
endheader
time	lFx	lFy	lFz	lCOPx	lCOPy	lCOPz	rFx	rFy	rFz	rCOPx	rCOPy	rCOPz	lMx	lMy	lMz	rMx	rMy	rMz
0	-0.35071135	374.47475257	25.31321314	0.70764898	0	-0.63807355	-0.45544286	366.22903555	-24.97175812	0.70434951	0	-0.35458412	0	1.56149395	0	0	1.29061352	-0.00000000
0.01000000	0.25035813	374.28641519	25.05778789	0.70761059	0	-0.63811545	1.34696078	365.65703487	-24.77721966	0.70527064	0	-0.35492195	0	1.63240528	0	0	0.97288247	0.00000000
0.02000000	0.58573213	374.23628954	24.88562223	0.70763675	0	-0.63815605	2.42131459	365.22017227	-24.65708446	0.70561847	0	-0.35511324	0	1.67959296	0	0	0.81913815	0
0.03000000	0.72041774	374.45834736	24.81551059	0.70767866	0	-0.63820907	2.85939212	364.92365404	-24.61703588	0.70552885	0	-0.35521560	0	1.71015542	0	0	0.79713932	-0.00000000
0.04000000	0.77551210	374.96309294	24.77910822	0.70768244	0	-0.63826983	2.95452502	364.72790727	-24.63758018	0.70533318	0	-0.35527655	0	1.73845040	0	0	0.82076660	0.00000000
0.05000000	0.81707396	375.66852124	24.74138166	0.70766665	0	-0.63829921	2.91679452	364.47890125	-24.69103929	0.70511798	0	-0.35531768	0	1.76897380	0	0	0.83739320	0
0.06000000	0.86969873	376.46114724	24.69009045	0.70766457	0	-0.63830301	2.86488986	364.08855856	-24.74433398	0.70491413	0	-0.35537056	0	1.79449569	0	0	0.82646225	0
0.07000000	0.92990419	377.19285308	24.60695758	0.70771044	0	-0.63833660	2.84037333	363.56615450	-24.75355194	0.70474913	0	-0.35540254	0	1.80800879	0	0	0.80121848	0.00000000
0.08000000	0.99766265	377.65502752	24.51970182	0.70774890	0	-0.63839580	2.84403761	362.96781606	-24.71628782	0.70469173	0	-0.35541274	0	1.81539177	0	0	0.77381053	0
0.09000000	1.05378566	377.77278754	24.49280917	0.70771073	0	-0.63845753	2.87370933	362.35979477	-24.65531479	0.70484231	0	-0.35540857	0	1.82251923	0	0	0.74445889	0
0.10000000	1.06073483	377.56747643	24.54906558	0.70761823	0	-0.63853622	2.88935977	361.71814990	-24.60990496	0.70515195	0	-0.35540438	0	1.80764905	0	0	0.72606545	0.00000000
0.11000000	0.97931817	377.17826187	24.66537814	0.70766929	0	-0.63863831	2.84357748	361.01523823	-24.61411684	0.70557926	0	-0.35541942	0	1.77266436	0	0	0.72995595	0.00000000
0.12000000	0.78966629	376.93173657	24.80187180	0.70794515	0	-0.63875386	2.68436224	360.25153350	-24.63963791	0.70602044	0	-0.35544852	0	1.74213414	0	0	0.75287534	0
0.13000000	0.48472210	377.12490766	24.90114982	0.70831461	0	-0.63884824	2.41647645	359.48712247	-24.64332667	0.70646733	0	-0.35545707	0	1.73930724	0	0	0.76724856	0
0.14000000	0.11176250	377.78495786	24.92649977	0.70860387	0	-0.63888273	2.08070410	358.81665715	-24.61603016	0.70695676	0	-0.35543428	0	1.77051542	0	0	0.77783271	0.00000000
0.15000000	-0.23528567	378.66342574	24.86732825	0.70877748	0	-0.63886392	1.74594774	358.29212104	-24.56450745	0.70747414	0	-0.35538894	0	1.82125890	0	0	0.79202890	0
0.16000000	-0.45038020	379.49809236	24.76636228	0.70895478	0	-0.63885050	1.49424811	357.86542996	-24.51581029	0.70794279	0	-0.35536747	0	1.86576808	0	0	0.81419813	0
0.17000000	-0.46762029	380.22226543	24.67649708	0.70925772	0	-0.63890380	1.36722115	357.47724907	-24.49853622	0.70833071	0	-0.35536889	0	1.89285210	0	0	0.83771574	0
0.18000000	-0.30923794	380.83244777	24.61837485	0.70957930	0	-0.63899407	1.36258467	357.11754281	-24.51948095	0.70867607	0	-0.35536879	0	1.89272300	0	0	0.84593238	0
0.19000000	-0.02827501	381.41173744	24.56960656	0.70976754	0	-0.63909008	1.43836175	356.82071383	-24.56580143	0.70898990	0	-0.35533235	0	1.88426039	0	0	0.83104151	0.00000000
0.20000000	0.29863797	382.13118708	24.51320759	0.70975954	0	-0.63916029	1.52553527	356.57578126	-24.63304848	0.70924080	0	-0.35525572	0	1.89633399	0	0	0.81222545	0
0.21000000	0.62742444	383.07388920	24.44879788	0.70950273	0	-0.63917800	1.52568026	356.28103488	-24.73466539	0.70954660	0	-0.35515360	0	1.94891453	0	0	0.79777090	0
0.22000000	0.94960635	384.14661344	24.38100527	0.70912766	0	-0.63911079	1.39285357	355.79498322	-24.86371015	0.71000272	0	-0.35507834	0	2.05123912	0	0	0.78492441	0
0.23000000	1.25468328	385.20499229	24.31338460	0.70883191	0	-0.63898783	1.13343328	355.06738424	-24.98591105	0.71066249	0	-0.35506262	0	2.16545319	0	0	0.77169911	-0.00000000
0.24000000	1.53311184	386.24894771	24.25073956	0.70859647	0	-0.63885708	0.77181147	354.16742743	-25.05514473	0.71150785	0	-0.35503301	0	2.24958142	0	0	0.76905804	0
0.25000000	1.75029844	387.35166136	24.17526291	0.70831285	0	-0.63876384	0.37369416	353.20498524	-25.07727832	0.71226048	0	-0.35491926	0	2.32059266	0	0	0.78817471	0.00000000
0.26000000	1.87097914	388.43929119	24.09911940	0.70800519	0	-0.63867576	0.01761292	352.31935019	-25.11453577	0.71274791	0	-0.35474585	0	2.38358451	0	0	0.81955030	-0.00000000
0.27000000	1.91252644	389.45891040	24.04594320	0.70779832	0	-0.63855803	-0.27850240	351.68213493	-25.18962667	0.71318667	0	-0.35457333	0	2.42654852	0	0	0.84396900	-0.00000000
0.28000000	1.90543124	390.43766449	24.02700562	0.70762043	0	-0.63841119	-0.54765011	351.23969633	-25.30346110	0.71371534	0	-0.35444921	0	2.46303563	0	0	0.85742406	0
0.29000000	1.88485104	391.49741260	24.04689423	0.70747296	0	-0.63828572	-0.79853146	350.83755422	-25.45011767	0.71428675	0	-0.35437510	0	2.50092978	0	0	0.86756084	-0.00000000
0.30000000	1.88664629	392.66176902	24.08604109	0.70733679	0	-0.63820597	-1.04657706	350.39974938	-25.61046554	0.71486909	0	-0.35427757	0	2.52150786	0	0	0.87425493	0
0.31000000	1.92230103	393.96320586	24.13422485	0.70711934	0	-0.63814550	-1.27716362	349.87932551	-25.76526863	0.71548274	0	-0.35413126	0	2.53564503	0	0	0.87480769	0
0.32000000	1.97293063	395.43703748	24.19194185	0.70683325	0	-0.63809599	-1.48105682	349.30033870	-25.90011885	0.71609039	0	-0.35397780	0	2.55877052	0	0	0.87255645	0
0.33000000	2.02800097	397.11653057	24.26730190	0.70656850	0	-0.63805974	-1.66462617	348.64337460	-26.02544777	0.71664784	0	-0.35386811	0	2.59665311	0	0	0.86652910	-0.00000000
0.34000000	2.08177362	399.03479048	24.39565376	0.70639623	0	-0.63802209	-1.80152033	347.91460226	-26.12714826	0.71714881	0	-0.35376572	0	2.65091254	0	0	0.86045750	-0.00000000
0.35000000	2.11314129	401.15316885	24.59701870	0.70637999	0	-0.63793407	-1.91693599	347.11837378	-26.20676509	0.71753624	0	-0.35364136	0	2.72357659	0	0	0.86767117	0
0.36000000	2.12890768	403.45526966	24.85356891	0.70652331	0	-0.63779034	-2.03376302	346.25899003	-26.26872936	0.71788521	0	-0.35349062	0	2.81606119	0	0	0.88932793	0.00000000
0.37000000	2.17701209	406.00771450	25.13458833	0.70662651	0	-0.63763994	-2.14251633	345.32469542	-26.34883810	0.71836197	0	-0.35334451	0	2.91293352	0	0	0.90301223	0
0.38000000	2.26050933	408.94587806	25.45279791	0.70661311	0	-0.63748200	-2.28038442	344.22837047	-26.47112110	0.71889714	0	-0.35321224	0	2.99953955	0	0	0.90660804	0.00000000
0.39000000	2.37610301	412.28884170	25.79295680	0.70660619	0	-0.63735231	-2.47554032	342.90197814	-26.60729047	0.71945017	0	-0.35308002	0	3.06035370	0	0	0.90978250	0
0.40000000	2.54693249	415.92541163	26.14684689	0.70668231	0	-0.63727307	-2.70054874	341.26670776	-26.70582744	0.72003209	0	-0.35293922	0	3.09055567	0	0	0.91478355	0
0.41000000	2.76105951	419.84924829	26.52550478	0.70671831	0	-0.63728665	-2.95180434	339.23227686	-26.73733459	0.72058498	0	-0.35281262	0	3.10049786	0	0	0.93273376	0
0.42000000	3.00368118	424.41799288	26.95739267	0.70645945	0	-0.63738624	-3.22476923	336.90797054	-26.66835106	0.72097457	0	-0.35269804	0	3.11873049	0	0	0.97465166	0
0.43000000	3.27866261	430.09894576	27.48935518	0.70583527	0	-0.63750390	-3.47359113	334.47773214	-26.52323724	0.72101104	0	-0.35255824	0	3.17419723	0	0	1.01950897	0
0.44000000	3.59694168	437.08259309	28.18264361	0.70504566	0	-0.63757696	-3.62292897	331.98704390	-26.39164894	0.72074837	0	-0.35243760	0	3.27949947	0	0	1.05152900	0
0.45000000	3.97557265	445.13614455	29.11002640	0.70422597	0	-0.63760875	-3.67703137	329.39796450	-26.30791679	0.72041919	0	-0.35234464	0	3.41270667	0	0	1.07446523	0
0.46000000	4.38768812	453.68289886	30.23489752	0.70358222	0	-0.63768639	-3.67200163	326.67879529	-26.22311121	0.72016359	0	-0.35221332	0	3.53954351	0	0	1.08676930	0
0.47000000	4.80114868	462.06449007	31.45911005	0.70313954	0	-0.63784138	-3.67624555	323.79710155	-26.10461325	0.72013446	0	-0.35206668	0	3.62502806	0	0	1.08685604	0
0.48000000	5.22888313	470.10036111	32.70683322	0.70263720	0	-0.63803014	-3.71752928	320.80221865	-25.92587726	0.72051528	0	-0.35195100	0	3.67859830	0	0	1.04955490	0
0.49000000	5.65938902	478.04216400	33.92934041	0.70197285	0	-0.63816772	-3.77107997	317.69098870	-25.70636172	0.72127288	0	-0.35192640	0	3.74030311	0	0	0.98003144	0
0.50000000	6.02793030	486.27401275	35.09836398	0.70135109	0	-0.63823092	-3.84592541	314.34185421	-25.46474021	0.72207174	0	-0.35199634	0	3.82878278	0	0	0.92324979	0
0.51000000	6.29522346	495.00716424	36.19594395	0.70099981	0	-0.63828709	-3.97456231	310.50016049	-25.18065686	0.72268427	0	-0.35214855	0	3.92927781	0	0	0.89786549	0.00000000
0.52000000	6.46241840	504.06336527	37.24416578	0.70093903	0	-0.63841056	-4.18574965	305.87786885	-24.80534291	0.72312696	0	-0.35235927	0	4.02518212	0	0	0.88740539	0
